<mxfile host="65bd71144e">
    <diagram id="v3CgqRvLgrD9VLqYVRs-" name="Page-1">
        <mxGraphModel dx="440" dy="825" grid="1" gridSize="10" guides="1" tooltips="1" connect="1" arrows="1" fold="1" page="1" pageScale="1" pageWidth="850" pageHeight="1100" math="0" shadow="0">
            <root>
                <mxCell id="0"/>
                <mxCell id="1" parent="0"/>
                <mxCell id="10" style="edgeStyle=none;html=1;exitX=1;exitY=1;exitDx=0;exitDy=0;entryX=0;entryY=0;entryDx=0;entryDy=0;shape=link;" parent="1" source="22" target="23" edge="1">
                    <mxGeometry relative="1" as="geometry">
                        <mxPoint x="465" y="200" as="sourcePoint"/>
                        <mxPoint x="545" y="240" as="targetPoint"/>
                    </mxGeometry>
                </mxCell>
                <mxCell id="11" style="edgeStyle=none;html=1;exitX=0;exitY=1;exitDx=0;exitDy=0;entryX=1;entryY=0;entryDx=0;entryDy=0;shape=link;" parent="1" source="22" target="21" edge="1">
                    <mxGeometry relative="1" as="geometry">
                        <mxPoint x="385" y="200" as="sourcePoint"/>
                        <mxPoint x="305" y="240" as="targetPoint"/>
                    </mxGeometry>
                </mxCell>
                <mxCell id="16" style="edgeStyle=none;shape=link;html=1;exitX=0.5;exitY=0;exitDx=0;exitDy=0;entryX=0.5;entryY=1;entryDx=0;entryDy=0;" parent="1" edge="1">
                    <mxGeometry relative="1" as="geometry">
                        <mxPoint x="585" y="400" as="sourcePoint"/>
                        <mxPoint x="585" y="320" as="targetPoint"/>
                    </mxGeometry>
                </mxCell>
                <mxCell id="12" style="edgeStyle=none;html=1;exitX=0.5;exitY=1;exitDx=0;exitDy=0;entryX=0.5;entryY=0;entryDx=0;entryDy=0;shape=link;" parent="1" edge="1">
                    <mxGeometry relative="1" as="geometry">
                        <mxPoint x="265" y="320" as="sourcePoint"/>
                        <mxPoint x="265" y="400" as="targetPoint"/>
                    </mxGeometry>
                </mxCell>
                <mxCell id="17" style="edgeStyle=none;shape=link;html=1;exitX=1;exitY=0.5;exitDx=0;exitDy=0;entryX=0;entryY=1;entryDx=0;entryDy=0;" parent="1" source="18" target="19" edge="1">
                    <mxGeometry relative="1" as="geometry">
                        <mxPoint x="475" y="520" as="sourcePoint"/>
                        <mxPoint x="545" y="480" as="targetPoint"/>
                    </mxGeometry>
                </mxCell>
                <mxCell id="13" style="edgeStyle=none;html=1;exitX=1;exitY=1;exitDx=0;exitDy=0;entryX=0.01;entryY=0.421;entryDx=0;entryDy=0;shape=link;entryPerimeter=0;" parent="1" source="20" target="18" edge="1">
                    <mxGeometry relative="1" as="geometry">
                        <mxPoint x="305" y="480" as="sourcePoint"/>
                        <mxPoint x="395" y="520" as="targetPoint"/>
                    </mxGeometry>
                </mxCell>
                <mxCell id="18" value="F" style="ellipse;fontSize=30;" parent="1" vertex="1">
                    <mxGeometry x="385" y="480" width="80" height="80" as="geometry"/>
                </mxCell>
                <mxCell id="19" value="E" style="ellipse;fontSize=30;" parent="1" vertex="1">
                    <mxGeometry x="545" y="400" width="80" height="80" as="geometry"/>
                </mxCell>
                <mxCell id="25" style="edgeStyle=none;html=1;exitX=1;exitY=0.5;exitDx=0;exitDy=0;entryX=0;entryY=0.5;entryDx=0;entryDy=0;shape=link;" edge="1" parent="1" source="20" target="19">
                    <mxGeometry relative="1" as="geometry"/>
                </mxCell>
                <mxCell id="20" value="D" style="ellipse;fontSize=30;" parent="1" vertex="1">
                    <mxGeometry x="225" y="400" width="80" height="80" as="geometry"/>
                </mxCell>
                <mxCell id="21" value="B" style="ellipse;fontSize=30;" parent="1" vertex="1">
                    <mxGeometry x="225" y="240" width="80" height="80" as="geometry"/>
                </mxCell>
                <mxCell id="22" value="A" style="ellipse;fontSize=30;" parent="1" vertex="1">
                    <mxGeometry x="385" y="120" width="80" height="80" as="geometry"/>
                </mxCell>
                <mxCell id="23" value="C" style="ellipse;fontSize=30;" parent="1" vertex="1">
                    <mxGeometry x="545" y="240" width="80" height="80" as="geometry"/>
                </mxCell>
            </root>
        </mxGraphModel>
    </diagram>
</mxfile>